<svg width="14" height="15" viewBox="0 0 14 15" fill="none" xmlns="http://www.w3.org/2000/svg">
<path fill-rule="evenodd" clip-rule="evenodd" d="M6.99992 8.66665C7.64425 8.66665 8.16658 8.14431 8.16658 7.49998C8.16658 6.85565 7.64425 6.33331 6.99992 6.33331C6.35559 6.33331 5.83325 6.85565 5.83325 7.49998C5.83325 8.14431 6.35559 8.66665 6.99992 8.66665Z" stroke="#00BB7C" stroke-width="1.22693" stroke-linecap="round" stroke-linejoin="round"/>
<path fill-rule="evenodd" clip-rule="evenodd" d="M6.99992 3.99996C7.64425 3.99996 8.16658 3.47762 8.16658 2.83329C8.16658 2.18896 7.64425 1.66663 6.99992 1.66663C6.35559 1.66663 5.83325 2.18896 5.83325 2.83329C5.83325 3.47762 6.35559 3.99996 6.99992 3.99996Z" stroke="#00BB7C" stroke-width="1.22693" stroke-linecap="round" stroke-linejoin="round"/>
<path fill-rule="evenodd" clip-rule="evenodd" d="M6.99992 13.3333C7.64425 13.3333 8.16658 12.811 8.16658 12.1667C8.16658 11.5223 7.64425 11 6.99992 11C6.35559 11 5.83325 11.5223 5.83325 12.1667C5.83325 12.811 6.35559 13.3333 6.99992 13.3333Z" stroke="#00BB7C" stroke-width="1.22693" stroke-linecap="round" stroke-linejoin="round"/>
</svg>
