<svg width="16" height="16" viewBox="0 0 16 10" fill="none" xmlns="http://www.w3.org/2000/svg">
<path d="M7.008 9.6C7.272 9.6 7.52 9.416 7.584 9.152L9.584 0.759999C9.592 0.712 9.6 0.664 9.6 0.615999C9.6 0.296 9.352 0 8.992 0C8.728 0 8.488 0.183999 8.424 0.448L6.424 8.84C6.408 8.896 6.4 8.944 6.4 9C6.4 9.312 6.656 9.6 7.008 9.6ZM3.8 7.6C4.128 7.6 4.4 7.328 4.4 7C4.4 6.84 4.344 6.68 4.224 6.576L2.2 4.8L4.216 3.032C4.336 2.928 4.4 2.768 4.4 2.6C4.4 2.272 4.128 2 3.8 2C3.632 2 3.488 2.08 3.368 2.184L0.992 4.36C0.872 4.472 0.8 4.624 0.8 4.8C0.8 4.976 0.872 5.128 0.992 5.24L3.376 7.424C3.496 7.528 3.64 7.6 3.8 7.6ZM12.2 7.6C12.36 7.6 12.504 7.528 12.624 7.424L15.008 5.24C15.128 5.128 15.2 4.976 15.2 4.8C15.2 4.624 15.128 4.472 15.008 4.36L12.632 2.184C12.512 2.08 12.368 2 12.2 2C11.872 2 11.6 2.272 11.6 2.6C11.6 2.768 11.664 2.928 11.784 3.032L13.8 4.8L11.776 6.576C11.656 6.68 11.6 6.84 11.6 7C11.6 7.328 11.872 7.6 12.2 7.6Z" fill="#333333"/>
</svg>
