<svg width="16" height="17" viewBox="0 0 16 17" fill="none" xmlns="http://www.w3.org/2000/svg">
<path d="M2 4.5H3.33333H14" stroke="#999999" stroke-width="1.22693" stroke-linecap="round" stroke-linejoin="round"/>
<path d="M13.28 4.49995C13.28 4.16114 13.0054 3.88648 12.6666 3.88648C12.3278 3.88648 12.0531 4.16114 12.0531 4.49995H13.28ZM3.94671 4.49995C3.94671 4.16114 3.67206 3.88648 3.33325 3.88648C2.99445 3.88648 2.71979 4.16114 2.71979 4.49995H3.94671ZM4.71989 4.49992C4.71989 4.83872 4.99455 5.11338 5.33335 5.11338C5.67216 5.11338 5.94681 4.83872 5.94681 4.49992H4.71989ZM10.0532 4.49992C10.0532 4.83872 10.3279 5.11338 10.6667 5.11338C11.0055 5.11338 11.2801 4.83872 11.2801 4.49992H10.0532ZM12.0531 4.49995V13.8333H13.28V4.49995H12.0531ZM12.0531 13.8333C12.0531 14.2309 11.7308 14.5531 11.3333 14.5531V15.7801C12.4084 15.7801 13.28 14.9085 13.28 13.8333H12.0531ZM11.3333 14.5531H4.66659V15.7801H11.3333V14.5531ZM4.66659 14.5531C4.26901 14.5531 3.94671 14.2309 3.94671 13.8333H2.71979C2.71979 14.9085 3.5914 15.7801 4.66659 15.7801V14.5531ZM3.94671 13.8333V4.49995H2.71979V13.8333H3.94671ZM5.94681 4.49992V3.16659H4.71989V4.49992H5.94681ZM5.94681 3.16659C5.94681 2.76901 6.26911 2.44671 6.66668 2.44671V1.21979C5.5915 1.21979 4.71989 2.0914 4.71989 3.16659H5.94681ZM6.66668 2.44671H9.33335V1.21979H6.66668V2.44671ZM9.33335 2.44671C9.73093 2.44671 10.0532 2.76901 10.0532 3.16659H11.2801C11.2801 2.0914 10.4085 1.21979 9.33335 1.21979V2.44671ZM10.0532 3.16659V4.49992H11.2801V3.16659H10.0532Z" fill="#999999"/>
<path d="M6.6665 7.83325V11.8333" stroke="#999999" stroke-width="1.22693" stroke-linecap="round" stroke-linejoin="round"/>
<path d="M9.33325 7.83325V11.8333" stroke="#999999" stroke-width="1.22693" stroke-linecap="round" stroke-linejoin="round"/>
</svg>
