<svg width="10" height="15" viewBox="0 0 10 15" fill="none" xmlns="http://www.w3.org/2000/svg">
<path d="M5 14.6C7.648 14.6 9.8 12.448 9.8 9.8V3.8C9.8 1.808 8.192 0.2 6.2 0.2C4.208 0.2 2.6 1.808 2.6 3.8V9.8C2.6 11.128 3.672 12.2 5 12.2C6.328 12.2 7.4 11.128 7.4 9.8V4.4C7.4 4.064 7.136 3.8 6.8 3.8C6.472 3.8 6.2 4.064 6.2 4.4V9.8C6.2 10.464 5.664 11 5 11C4.336 11 3.8 10.464 3.8 9.8V3.8C3.8 2.472 4.872 1.4 6.2 1.4C7.528 1.4 8.6 2.472 8.6 3.8V9.8C8.6 11.792 6.992 13.4 5 13.4C3.008 13.4 1.4 11.792 1.4 9.8V5.2C1.4 4.864 1.136 4.6 0.8 4.6C0.472 4.6 0.2 4.864 0.2 5.2V9.8C0.2 12.448 2.352 14.6 5 14.6Z" fill="#333333"/>
</svg>
