<svg width="32" height="33" viewBox="0 0 32 33" fill="none" xmlns="http://www.w3.org/2000/svg">
<rect y="0.379456" width="32" height="32" rx="16" fill="#F0FFFA"/>
<path d="M16 24.3795C18.1217 24.3795 20.1566 23.5366 21.6569 22.0363C23.1571 20.536 24 18.5012 24 16.3795C24 14.2577 23.1571 12.2229 21.6569 10.7226C20.1566 9.22231 18.1217 8.37946 16 8.37946C13.8783 8.37946 11.8434 9.22231 10.3431 10.7226C8.84285 12.2229 8 14.2577 8 16.3795C8 18.5012 8.84285 20.536 10.3431 22.0363C11.8434 23.5366 13.8783 24.3795 16 24.3795ZM16.93 14.9675L15.93 19.6725C15.86 20.0125 15.959 20.2055 16.234 20.2055C16.428 20.2055 16.721 20.1355 16.92 19.9595L16.832 20.3755C16.545 20.7215 15.912 20.9735 15.367 20.9735C14.664 20.9735 14.365 20.5515 14.559 19.6545L15.297 16.1865C15.361 15.8935 15.303 15.7875 15.01 15.7165L14.559 15.6355L14.641 15.2545L16.931 14.9675H16.93ZM16 13.8795C15.7348 13.8795 15.4804 13.7741 15.2929 13.5866C15.1054 13.399 15 13.1447 15 12.8795C15 12.6142 15.1054 12.3599 15.2929 12.1723C15.4804 11.9848 15.7348 11.8795 16 11.8795C16.2652 11.8795 16.5196 11.9848 16.7071 12.1723C16.8946 12.3599 17 12.6142 17 12.8795C17 13.1447 16.8946 13.399 16.7071 13.5866C16.5196 13.7741 16.2652 13.8795 16 13.8795Z" fill="#00BB7C"/>
</svg>
