<svg width="16" height="16" viewBox="0 0 16 15" fill="none" xmlns="http://www.w3.org/2000/svg">
<path d="M8 0.2C4.024 0.2 0.8 3.424 0.8 7.4C0.8 11.376 4.024 14.6 8 14.6C11.976 14.6 15.2 11.376 15.2 7.4C15.2 3.424 11.976 0.2 8 0.2ZM8 1.4C11.312 1.4 14 4.088 14 7.4C14 10.712 11.312 13.4 8 13.4C4.688 13.4 2 10.712 2 7.4C2 4.088 4.688 1.4 8 1.4ZM6 7C6.664 7 7.2 6.464 7.2 5.8C7.2 5.136 6.664 4.6 6 4.6C5.336 4.6 4.8 5.136 4.8 5.8C4.8 6.464 5.336 7 6 7ZM10 7C10.664 7 11.2 6.464 11.2 5.8C11.2 5.136 10.664 4.6 10 4.6C9.336 4.6 8.8 5.136 8.8 5.8C8.8 6.464 9.336 7 10 7ZM8 11.16C10.336 11.16 11.6 9.488 11.6 8.56C11.6 8.24 11.352 7.96 11 7.96C10.728 7.96 10.488 8.144 10.424 8.416C10.208 9.336 8.984 9.96 8 9.96C6.936 9.96 5.8 9.336 5.576 8.408C5.512 8.144 5.272 7.96 5 7.96C4.648 7.96 4.4 8.24 4.4 8.56C4.4 9.56 5.704 11.16 8 11.16Z" fill="#333333"/>
</svg>
