<svg width="16" height="17" viewBox="0 0 16 17" fill="none" xmlns="http://www.w3.org/2000/svg">
<path d="M8 16.3795C10.1217 16.3795 12.1566 15.5366 13.6569 14.0363C15.1571 12.536 16 10.5012 16 8.37946C16 6.25772 15.1571 4.22289 13.6569 2.7226C12.1566 1.22231 10.1217 0.379456 8 0.379456C5.87827 0.379456 3.84344 1.22231 2.34315 2.7226C0.842855 4.22289 0 6.25772 0 8.37946C0 10.5012 0.842855 12.536 2.34315 14.0363C3.84344 15.5366 5.87827 16.3795 8 16.3795ZM8.93 6.96746L7.93 11.6725C7.86 12.0125 7.959 12.2055 8.234 12.2055C8.428 12.2055 8.721 12.1355 8.92 11.9595L8.832 12.3755C8.545 12.7215 7.912 12.9735 7.367 12.9735C6.664 12.9735 6.365 12.5515 6.559 11.6545L7.297 8.18646C7.361 7.89346 7.303 7.78746 7.01 7.71646L6.559 7.63546L6.641 7.25446L8.931 6.96746H8.93ZM8 5.87946C7.73478 5.87946 7.48043 5.7741 7.29289 5.58656C7.10536 5.39903 7 5.14467 7 4.87946C7 4.61424 7.10536 4.35989 7.29289 4.17235C7.48043 3.98481 7.73478 3.87946 8 3.87946C8.26522 3.87946 8.51957 3.98481 8.70711 4.17235C8.89464 4.35989 9 4.61424 9 4.87946C9 5.14467 8.89464 5.39903 8.70711 5.58656C8.51957 5.7741 8.26522 5.87946 8 5.87946Z" fill="#00BB7C"/>
</svg>
