<svg width="18" height="18" viewBox="0 0 18 18" fill="none" xmlns="http://www.w3.org/2000/svg">
<path d="M14.0108 10.0898L8.69456 15.355L3.37834 10.0898C3.02768 9.74858 2.75148 9.33845 2.56711 8.88524C2.38275 8.43202 2.29422 7.94555 2.30711 7.45644C2.31999 6.96734 2.43401 6.4862 2.64197 6.04332C2.84994 5.60044 3.14735 5.20543 3.51548 4.88314C3.88362 4.56085 4.31449 4.31828 4.78098 4.17069C5.24746 4.02311 5.73945 3.97371 6.22597 4.02561C6.71248 4.07751 7.18298 4.22958 7.60784 4.47225C8.03269 4.71492 8.4027 5.04292 8.69456 5.43562C8.98769 5.04577 9.35813 4.72063 9.78269 4.48054C10.2073 4.24045 10.6768 4.09057 11.162 4.0403C11.6471 3.99002 12.1374 4.04042 12.6022 4.18835C13.067 4.33628 13.4962 4.57855 13.863 4.9C14.2299 5.22144 14.5264 5.61515 14.7341 6.05647C14.9418 6.4978 15.0561 6.97724 15.07 7.46479C15.0839 7.95234 14.997 8.43751 14.8147 8.88992C14.6324 9.34234 14.3588 9.75227 14.0108 10.094" stroke="#333333" stroke-width="0.708831" stroke-linecap="round" stroke-linejoin="round"/>
</svg>
