<svg width="16" height="16" viewBox="0 0 16 13" fill="none" xmlns="http://www.w3.org/2000/svg">
<path d="M8.296 6C6.72 5.504 5.68 4.616 5.68 3.68C5.68 2.6 6.704 1.76 8.16 1.76C9.784 1.76 10.928 2.568 10.928 3.6C10.928 3.928 11.2 4.2 11.528 4.2C11.856 4.2 12.128 3.928 12.128 3.6C12.128 1.864 10.488 0.639999 8.16 0.639999C5.96 0.639999 4.4 1.896 4.4 3.68C4.4 4.592 4.952 5.432 5.84 6H1.2C0.872 6 0.6 6.272 0.6 6.6C0.6 6.928 0.872 7.2 1.2 7.2H14.8C15.128 7.2 15.4 6.928 15.4 6.6C15.4 6.272 15.128 6 14.8 6H8.296ZM10.512 8.4C10.592 8.632 10.64 8.896 10.64 9.12C10.64 10.2 9.616 11.04 8.16 11.04C6.536 11.04 5.384 10.232 5.384 9.2C5.384 8.872 5.112 8.6 4.784 8.6C4.456 8.6 4.184 8.872 4.184 9.2C4.184 10.936 5.832 12.16 8.16 12.16C10.36 12.16 11.92 10.904 11.92 9.12C11.92 8.896 11.888 8.632 11.84 8.4H10.512Z" fill="#333333"/>
</svg>
