<svg width="16" height="16" viewBox="0 0 14 13" fill="none" xmlns="http://www.w3.org/2000/svg">
<path d="M7.568 9.04C8.384 9.032 9.208 8.72 9.832 8.096L12.464 5.464C13.088 4.84 13.4 4.024 13.4 3.2C13.4 2.384 13.088 1.56 12.464 0.936C11.84 0.311999 11.016 -9.53674e-07 10.2 -9.53674e-07C9.376 -9.53674e-07 8.56 0.311999 7.936 0.936L7.056 1.816C6.808 2.08 6.808 2.432 7.056 2.664C7.336 2.912 7.664 2.904 7.904 2.664L8.784 1.784C9.176 1.4 9.688 1.2 10.2 1.2C10.712 1.192 11.224 1.4 11.616 1.784C12 2.176 12.208 2.688 12.2 3.2C12.2 3.712 12 4.224 11.616 4.616L8.976 7.248C8.592 7.64 8.08 7.832 7.568 7.832C6.712 7.848 6.336 7.376 5.872 6.912C5.64 6.68 5.256 6.68 5.024 6.912C4.816 7.128 4.792 7.448 4.96 7.688C5.616 8.536 6.448 9.032 7.568 9.04ZM3.8 12.8C4.624 12.8 5.44 12.488 6.064 11.864L6.944 10.984C7.192 10.72 7.192 10.368 6.944 10.136C6.664 9.888 6.336 9.896 6.096 10.136L5.216 11.016C4.824 11.4 4.312 11.6 3.8 11.6C3.288 11.6 2.776 11.4 2.384 11.016C2 10.624 1.8 10.112 1.8 9.6C1.8 9.088 2 8.576 2.384 8.184L5.024 5.552C5.408 5.16 5.92 4.968 6.432 4.968C7.448 4.968 7.752 5.512 8.128 5.888C8.36 6.12 8.744 6.12 8.976 5.888C9.304 5.56 9.096 5.104 8.696 4.704C8.072 4.08 7.256 3.768 6.432 3.76C5.616 3.768 4.792 4.08 4.168 4.704L1.536 7.336C0.912 7.96 0.6 8.776 0.6 9.6C0.6 10.416 0.912 11.24 1.536 11.864C2.16 12.488 2.984 12.8 3.8 12.8Z" fill="#333333"/>
</svg>
