<svg width="16" height="20" viewBox="0 0 16 20" fill="none" xmlns="http://www.w3.org/2000/svg">
<path d="M2.774 15.287L0.669005 18.537L0.893005 19.6L1.953 19.373L4.057 16.125C3.60456 15.8856 3.17509 15.6051 2.774 15.287ZM11.686 14.152C11.7 14.123 11.709 14.091 11.722 14.06C11.775 13.943 11.822 13.826 11.86 13.703C11.866 13.681 11.869 13.659 11.876 13.639C11.915 13.5046 11.9477 13.3685 11.974 13.231V13.21C12.169 12.041 11.829 10.737 11.051 9.55901L12.161 7.84501C13.44 8.00801 14.546 7.68601 15.078 6.86301C16.001 5.44001 14.878 3.07101 12.573 1.57001C10.266 0.0680118 7.65 0.00501168 6.729 1.42601C6.195 2.25001 6.35101 3.39301 7.02201 4.49901L5.91 6.21301C4.521 5.98001 3.194 6.19701 2.207 6.85301C2.201 6.85501 2.194 6.85701 2.19 6.86101C2.07468 6.93941 1.96384 7.02421 1.858 7.11501C1.841 7.12901 1.821 7.14201 1.807 7.15601C1.711 7.24085 1.62049 7.3317 1.536 7.42801C1.516 7.45201 1.488 7.47301 1.469 7.49801C1.3625 7.61863 1.26554 7.74735 1.179 7.88301C-0.204995 10.016 0.976005 13.244 3.812 15.092C6.65 16.94 10.072 16.706 11.453 14.573C11.54 14.438 11.62 14.297 11.686 14.152ZM10.871 4.19401C9.984 3.61701 9.55101 2.70701 9.906 2.15801C10.26 1.61101 11.267 1.63601 12.152 2.21301C13.041 2.79001 13.47 3.70201 13.117 4.24901C12.764 4.79601 11.759 4.77101 10.871 4.19401Z" fill="#333333"/>
</svg>
