<svg width="16" height="16" viewBox="0 0 16 13" fill="none" xmlns="http://www.w3.org/2000/svg">
<path d="M0 12H1.304L2.304 9.016H6.752L7.744 12H9.048L5.456 1.584C5.112 0.591999 3.968 0.599999 3.624 1.584L0 12ZM4.488 2.504C4.504 2.448 4.568 2.448 4.584 2.504L6.408 7.976H2.656L4.488 2.504ZM12.728 3.104C10.744 3.096 9.416 4.152 9.416 5.752H10.624C10.624 4.896 11.464 4.32 12.728 4.32C13.968 4.32 14.8 4.896 14.8 5.768V7.2H12.032C10.352 7.2 9.232 8.192 9.232 9.672C9.232 11.16 10.352 12.152 12.032 12.152C13.08 12.152 14.128 11.656 14.8 10.856V12H16V5.752C16 4.168 14.688 3.112 12.728 3.104ZM12.032 11.032C11.072 11.032 10.432 10.488 10.432 9.672C10.432 8.864 11.072 8.32 12.032 8.32H14.8V9.328C13.968 10.544 12.864 11.032 12.032 11.032Z" fill="#333333"/>
</svg>
