<svg width="411" height="402" viewBox="0 0 411 402" fill="none" xmlns="http://www.w3.org/2000/svg">
<circle cx="174.783" cy="174.423" r="141.846" fill="#F1F1F1"/>
<rect x="119.136" y="171.531" width="138.87" height="194.418" rx="13.887" transform="rotate(2.5 119.136 171.531)" fill="#EEEEEE" stroke="#CCCCCC" stroke-width="3.96772"/>
<rect x="36.5789" y="159.902" width="146.806" height="202.354" rx="17.8547" transform="rotate(-7.5 36.5789 159.902)" fill="#FAFAFA" stroke="#CCCCCC" stroke-width="3.96772"/>
<path d="M40.8763 177.345C39.7322 168.654 45.8495 160.682 54.5398 159.538L164.685 145.037C173.376 143.893 181.348 150.01 182.492 158.701L186.376 188.204L44.7604 206.848L40.8763 177.345Z" fill="#EEEEEE"/>
<rect x="211.219" y="148.916" width="5.95158" height="19.8386" rx="2.97579" transform="rotate(82.5 211.219 148.916)" fill="#CCCCCC"/>
<rect x="156.868" y="116.052" width="5.95158" height="19.8386" rx="2.97579" transform="rotate(-7.5 156.868 116.052)" fill="#CCCCCC"/>
<rect x="191.739" y="121.466" width="5.95157" height="19.8386" rx="2.97579" transform="rotate(37.5 191.739 121.466)" fill="#CCCCCC"/>
<rect x="59.5645" y="212.903" width="115.064" height="7.93543" rx="3.96772" transform="rotate(-7.5 59.5645 212.903)" fill="#DCDCDC"/>
<rect x="64.7433" y="252.241" width="115.064" height="7.93543" rx="3.96772" transform="rotate(-7.5 64.7433 252.241)" fill="#DCDCDC"/>
<rect x="69.9222" y="291.579" width="115.064" height="7.93543" rx="3.96772" transform="rotate(-7.5 69.9222 291.579)" fill="#DCDCDC"/>
<rect x="61.636" y="228.638" width="41.661" height="7.93543" rx="3.96772" transform="rotate(-7.5 61.636 228.638)" fill="#EEEEEE"/>
<rect x="66.8148" y="267.976" width="41.661" height="7.93543" rx="3.96772" transform="rotate(-7.5 66.8148 267.976)" fill="#EEEEEE"/>
<rect x="71.9939" y="307.314" width="41.661" height="7.93543" rx="3.96772" transform="rotate(-7.5 71.9939 307.314)" fill="#EEEEEE"/>
<circle cx="324.943" cy="117.927" r="71.7747" fill="#F1F1F1"/>
<circle cx="324.356" cy="118.05" r="41.9195" fill="#F1F1F1" stroke="#B3B3B3" stroke-width="2"/>
<circle cx="324.356" cy="118.05" r="29.6568" fill="#FFFEFF" stroke="#EEEEEE" stroke-width="2"/>
<path d="M324.356 95.5112C324.356 95.061 323.991 94.6946 323.541 94.7103C317.908 94.9068 312.526 97.1353 308.398 100.999C304.269 104.863 301.69 110.086 301.122 115.694C301.076 116.142 301.418 116.53 301.867 116.56C302.316 116.59 302.703 116.249 302.749 115.802C303.29 110.607 305.686 105.771 309.512 102.189C313.338 98.6083 318.322 96.5374 323.541 96.3416C323.991 96.3247 324.356 95.9614 324.356 95.5112Z" fill="#EEEEEE"/>
<rect x="357.033" y="163.563" width="14" height="42" rx="7" transform="rotate(-45 357.033 163.563)" fill="#F1F1F1" stroke="#B3B3B3" stroke-width="2"/>
<rect x="371.809" y="166.934" width="1.94836" height="16.3364" rx="0.974179" transform="rotate(-45 371.809 166.934)" fill="white"/>
<rect x="355.611" y="153.656" width="2" height="8" transform="rotate(-45 355.611 153.656)" fill="#EEEEEE"/>
<rect x="376.831" y="113.013" width="20" height="2" rx="1" fill="#EEEEEE"/>
<rect x="253.169" y="129.558" width="20" height="2" rx="1" fill="#EEEEEE"/>
<rect x="400.831" y="113.013" width="10" height="2" rx="1" fill="#EEEEEE"/>
<rect x="381.831" y="120.352" width="10" height="2" rx="1" fill="#EEEEEE"/>
<rect x="258.169" y="136.896" width="10" height="2" rx="1" fill="#EEEEEE"/>
</svg>
