<svg width="16" height="16" viewBox="0 0 16 16" fill="none" xmlns="http://www.w3.org/2000/svg">
<path d="M6.5 2.38745C5.70435 2.38745 4.94129 2.70352 4.37868 3.26613C3.81607 3.82874 3.5 4.5918 3.5 5.38745C3.5 6.1831 3.81607 6.94616 4.37868 7.50877C4.94129 8.07138 5.70435 8.38745 6.5 8.38745C7.29565 8.38745 8.05871 8.07138 8.62132 7.50877C9.18393 6.94616 9.5 6.1831 9.5 5.38745C9.5 4.5918 9.18393 3.82874 8.62132 3.26613C8.05871 2.70352 7.29565 2.38745 6.5 2.38745ZM2 5.38745C2 4.19398 2.47411 3.04938 3.31802 2.20547C4.16193 1.36156 5.30653 0.887451 6.5 0.887451C7.69347 0.887451 8.83807 1.36156 9.68198 2.20547C10.5259 3.04938 11 4.19398 11 5.38745C11 6.58093 10.5259 7.72552 9.68198 8.56943C8.83807 9.41335 7.69347 9.88745 6.5 9.88745C5.30653 9.88745 4.16193 9.41335 3.31802 8.56943C2.47411 7.72552 2 6.58093 2 5.38745ZM15.248 7.8272C15.3965 7.95934 15.4865 8.14502 15.4981 8.34344C15.5098 8.54187 15.4422 8.73682 15.3102 8.88545L13.3107 11.1355C13.2404 11.2146 13.154 11.278 13.0574 11.3214C12.9608 11.3648 12.8561 11.3873 12.7501 11.3873C12.6442 11.3873 12.5395 11.3648 12.4428 11.3214C12.3462 11.278 12.2599 11.2146 12.1895 11.1355L11.1898 10.0105C11.0653 9.8608 11.004 9.66864 11.0186 9.47458C11.0333 9.28051 11.1228 9.09974 11.2682 8.97044C11.4137 8.84115 11.6037 8.77346 11.7981 8.78167C11.9926 8.78988 12.1762 8.87335 12.3102 9.01445L12.7498 9.5087L14.1898 7.8887C14.322 7.74032 14.5077 7.65049 14.7061 7.63896C14.9046 7.62743 15.0995 7.69514 15.248 7.8272ZM3.875 12.8875C2.93 12.8875 2 13.7972 2 15.1375C2 15.3364 1.92098 15.5271 1.78033 15.6678C1.63968 15.8084 1.44891 15.8875 1.25 15.8875C1.05109 15.8875 0.860322 15.8084 0.71967 15.6678C0.579018 15.5271 0.5 15.3364 0.5 15.1375C0.5 13.1635 1.91975 11.3875 3.875 11.3875H9.125C11.0802 11.3875 12.5 13.1635 12.5 15.1375C12.5 15.3364 12.421 15.5271 12.2803 15.6678C12.1397 15.8084 11.9489 15.8875 11.75 15.8875C11.5511 15.8875 11.3603 15.8084 11.2197 15.6678C11.079 15.5271 11 15.3364 11 15.1375C11 13.7972 10.07 12.8875 9.125 12.8875H3.875Z" fill="#999999"/>
</svg>

