<svg width="16" height="16" viewBox="0 0 16 16" fill="none" xmlns="http://www.w3.org/2000/svg">
<path d="M6.5 2.18518C5.70435 2.18518 4.94129 2.50125 4.37868 3.06386C3.81607 3.62647 3.5 4.38953 3.5 5.18518C3.5 5.98083 3.81607 6.74389 4.37868 7.3065C4.94129 7.86911 5.70435 8.18518 6.5 8.18518C7.29565 8.18518 8.05871 7.86911 8.62132 7.3065C9.18393 6.74389 9.5 5.98083 9.5 5.18518C9.5 4.38953 9.18393 3.62647 8.62132 3.06386C8.05871 2.50125 7.29565 2.18518 6.5 2.18518ZM2 5.18518C2 3.99171 2.47411 2.84711 3.31802 2.0032C4.16193 1.15929 5.30653 0.685181 6.5 0.685181C7.69347 0.685181 8.83807 1.15929 9.68198 2.0032C10.5259 2.84711 11 3.99171 11 5.18518C11 6.37865 10.5259 7.52325 9.68198 8.36716C8.83807 9.21107 7.69347 9.68518 6.5 9.68518C5.30653 9.68518 4.16193 9.21107 3.31802 8.36716C2.47411 7.52325 2 6.37865 2 5.18518ZM11.621 2.00293C11.6907 1.9332 11.7734 1.87788 11.8644 1.84014C11.9555 1.80239 12.0531 1.78297 12.1516 1.78297C12.2502 1.78297 12.3478 1.80239 12.4388 1.84014C12.5299 1.87788 12.6126 1.9332 12.6823 2.00293C13.1002 2.4208 13.4317 2.91691 13.6579 3.46293C13.8841 4.00894 14.0005 4.59417 14.0005 5.18518C14.0005 5.77619 13.8841 6.36142 13.6579 6.90743C13.4317 7.45345 13.1002 7.94956 12.6823 8.36743C12.6126 8.43711 12.5298 8.49239 12.4388 8.5301C12.3478 8.56781 12.2502 8.58722 12.1516 8.58722C12.0531 8.58722 11.9555 8.56781 11.8645 8.5301C11.7734 8.49239 11.6907 8.43711 11.621 8.36743C11.5513 8.29775 11.496 8.21502 11.4583 8.12398C11.4206 8.03293 11.4012 7.93535 11.4012 7.83681C11.4012 7.73826 11.4206 7.64068 11.4583 7.54963C11.496 7.45859 11.5513 7.37586 11.621 7.30618C12.1834 6.7436 12.4994 5.98067 12.4994 5.18518C12.4994 4.38969 12.1834 3.62676 11.621 3.06418C11.5513 2.99453 11.4959 2.91181 11.4582 2.82076C11.4205 2.72971 11.401 2.63212 11.401 2.53356C11.401 2.43499 11.4205 2.3374 11.4582 2.24635C11.4959 2.1553 11.5513 2.07259 11.621 2.00293ZM12.1475 11.7529C12.1958 11.5602 12.3187 11.3944 12.4892 11.2922C12.6596 11.19 12.8637 11.1596 13.0565 11.2077C14.0525 11.4567 14.6832 12.0927 15.0455 12.8187C15.3965 13.5199 15.5 14.3037 15.5 14.9352C15.5 15.1341 15.421 15.3249 15.2803 15.4655C15.1397 15.6062 14.9489 15.6852 14.75 15.6852C14.5511 15.6852 14.3603 15.6062 14.2197 15.4655C14.079 15.3249 14 15.1341 14 14.9352C14 14.4424 13.916 13.9129 13.7045 13.4892C13.5043 13.0894 13.1967 12.7887 12.6927 12.6627C12.5 12.6143 12.3343 12.4914 12.232 12.321C12.1298 12.1506 12.0994 11.9465 12.1475 11.7537V11.7529ZM3.875 12.6852C2.93 12.6852 2 13.5949 2 14.9352C2 15.1341 1.92098 15.3249 1.78033 15.4655C1.63968 15.6062 1.44891 15.6852 1.25 15.6852C1.05109 15.6852 0.860322 15.6062 0.71967 15.4655C0.579018 15.3249 0.5 15.1341 0.5 14.9352C0.5 12.9612 1.91975 11.1852 3.875 11.1852H9.125C11.0802 11.1852 12.5 12.9612 12.5 14.9352C12.5 15.1341 12.421 15.3249 12.2803 15.4655C12.1397 15.6062 11.9489 15.6852 11.75 15.6852C11.5511 15.6852 11.3603 15.6062 11.2197 15.4655C11.079 15.3249 11 15.1341 11 14.9352C11 13.5949 10.07 12.6852 9.125 12.6852H3.875Z" fill="#999999"/>
</svg>
