<svg width="10" height="11" viewBox="0 0 10 11" fill="none" xmlns="http://www.w3.org/2000/svg">
<path d="M9.99996 5.43743C9.99996 4.1246 9.49116 2.86555 8.5855 1.93725C7.67984 1.00894 6.45149 0.487427 5.17069 0.487427C3.88989 0.487427 2.66155 1.00894 1.75589 1.93725C0.850226 2.86555 0.341431 4.1246 0.341431 5.43743C0.341431 6.75025 0.850226 8.0093 1.75589 8.9376C2.66155 9.86591 3.88989 10.3874 5.17069 10.3874C6.45149 10.3874 7.67984 9.86591 8.5855 8.9376C9.49116 8.0093 9.99996 6.75025 9.99996 5.43743ZM5.60972 5.88743L5.6106 8.14013C5.6106 8.25947 5.56434 8.37393 5.48201 8.45832C5.39968 8.54272 5.28801 8.59013 5.17157 8.59013C5.05514 8.59013 4.94347 8.54272 4.86113 8.45832C4.7788 8.37393 4.73255 8.25947 4.73255 8.14013V5.88743H2.53304C2.4166 5.88743 2.30493 5.84002 2.2226 5.75562C2.14027 5.67123 2.09401 5.55677 2.09401 5.43743C2.09401 5.31808 2.14027 5.20362 2.2226 5.11923C2.30493 5.03484 2.4166 4.98743 2.53304 4.98743H4.73167V2.73743C4.73167 2.61808 4.77792 2.50362 4.86026 2.41923C4.94259 2.33484 5.05426 2.28743 5.17069 2.28743C5.28713 2.28743 5.3988 2.33484 5.48113 2.41923C5.56346 2.50362 5.60972 2.61808 5.60972 2.73743V4.98743H7.8022C7.91864 4.98743 8.03031 5.03484 8.11264 5.11923C8.19497 5.20362 8.24123 5.31808 8.24123 5.43743C8.24123 5.55677 8.19497 5.67123 8.11264 5.75562C8.03031 5.84002 7.91864 5.88743 7.8022 5.88743H5.60972Z" fill="#999999"/>
</svg>

