<svg width="105" height="31" viewBox="0 0 105 31" fill="none" xmlns="http://www.w3.org/2000/svg">
<path d="M48.616 8.52409C48.616 8.70104 48.5853 8.88184 48.5237 9.06649C48.4699 9.24345 48.3891 9.40886 48.2814 9.56274L40.0183 21.288H48.3852V24H35.5752V22.6498C35.5752 22.4882 35.6021 22.3305 35.656 22.1766C35.7098 22.015 35.7868 21.8688 35.8868 21.738L44.1729 9.96666H36.1638V7.25462H48.616V8.52409ZM63.2778 21.2303C63.8394 21.2303 64.3434 21.1379 64.7896 20.9533C65.2358 20.7609 65.6128 20.4917 65.9206 20.1454C66.2283 19.7992 66.463 19.3799 66.6246 18.8875C66.7861 18.3951 66.8669 17.8412 66.8669 17.2257V7.25462H70.3291V17.2257C70.3291 18.2413 70.1637 19.176 69.8328 20.03C69.5097 20.8764 69.0442 21.6073 68.4364 22.2228C67.8286 22.8382 67.09 23.3191 66.2206 23.6653C65.3513 24.0115 64.3703 24.1846 63.2778 24.1846C62.1853 24.1846 61.2005 24.0115 60.3234 23.6653C59.454 23.3191 58.7154 22.8382 58.1076 22.2228C57.4998 21.6073 57.0305 20.8764 56.6997 20.03C56.3765 19.176 56.215 18.2413 56.215 17.2257V7.25462H59.6771V17.2257C59.6771 17.8412 59.7579 18.3951 59.9195 18.8875C60.0811 19.3799 60.3157 19.7992 60.6235 20.1454C60.9312 20.4917 61.3082 20.7609 61.7544 20.9533C62.2007 21.1379 62.7085 21.2303 63.2778 21.2303ZM84.3375 15.183C84.8992 15.183 85.3839 15.1138 85.7917 14.9753C86.1994 14.8291 86.5341 14.6329 86.7957 14.3867C87.0573 14.1328 87.2496 13.8366 87.3727 13.4981C87.4958 13.1596 87.5574 12.7903 87.5574 12.3902C87.5574 11.5977 87.2919 10.9822 86.7611 10.5437C86.2379 10.1051 85.4377 9.88587 84.3606 9.88587H82.5603V15.183H84.3375ZM92.4506 24H89.3231C88.7384 24 88.3152 23.7769 88.0536 23.3306L84.8684 18.1951C84.7376 17.9951 84.5914 17.8489 84.4299 17.7565C84.276 17.6642 84.0452 17.6181 83.7374 17.6181H82.5603V24H79.0981V7.25462H84.3606C85.5301 7.25462 86.5303 7.37772 87.3612 7.62392C88.1921 7.86243 88.873 8.1971 89.4039 8.62795C89.9347 9.0588 90.3233 9.57428 90.5695 10.1744C90.8157 10.7668 90.9388 11.4208 90.9388 12.1363C90.9388 12.6902 90.858 13.2173 90.6964 13.7173C90.5425 14.2097 90.3156 14.6598 90.0155 15.0676C89.7155 15.4754 89.3462 15.837 88.9076 16.1524C88.4691 16.4678 87.969 16.7217 87.4073 16.9141C87.6305 17.0372 87.8382 17.1872 88.0305 17.3642C88.2229 17.5334 88.396 17.7373 88.5499 17.9758L92.4506 24ZM103.05 24H99.5646V7.25462H103.05V24Z" fill="#393939"/>
<rect x="3.91687" width="11.7504" height="11.7504" rx="1.0991" fill="#999999"/>
<rect y="13.429" width="11.7504" height="11.7504" rx="1.0991" fill="#FEA162"/>
<rect x="17.3458" y="5.59546" width="11.7504" height="11.7504" rx="1.0991" fill="#1A61DB"/>
<rect x="13.429" y="19.0245" width="11.7504" height="11.7504" rx="1.0991" fill="#DC1AA3"/>
</svg>
