<svg width="18" height="17" viewBox="0 0 18 17" fill="none" xmlns="http://www.w3.org/2000/svg">
<path d="M15.3 4.78748V2.98748C15.3 1.50248 14.085 0.287476 12.6 0.287476H5.4C3.915 0.287476 2.7 1.50248 2.7 2.98748V4.78748C1.215 4.78748 0 6.00248 0 7.48748V11.9875C0 13.4725 1.215 14.6875 2.7 14.6875V16.4875H4.5V14.6875H13.5V16.4875H15.3V14.6875C16.785 14.6875 18 13.4725 18 11.9875V7.48748C18 6.00248 16.785 4.78748 15.3 4.78748ZM4.5 2.98748C4.5 2.49248 4.905 2.08748 5.4 2.08748H12.6C13.095 2.08748 13.5 2.49248 13.5 2.98748V5.48948C12.951 5.98448 12.6 6.69548 12.6 7.48748V9.28748H5.4V7.48748C5.4 6.69548 5.049 5.98448 4.5 5.48948V2.98748ZM16.2 11.9875C16.2 12.4825 15.795 12.8875 15.3 12.8875H2.7C2.205 12.8875 1.8 12.4825 1.8 11.9875V7.48748C1.8 6.99248 2.205 6.58748 2.7 6.58748C3.195 6.58748 3.6 6.99248 3.6 7.48748V11.0875H14.4V7.48748C14.4 6.99248 14.805 6.58748 15.3 6.58748C15.795 6.58748 16.2 6.99248 16.2 7.48748V11.9875Z" fill="#999999"/>
</svg>

