<svg width="15" height="17" viewBox="0 0 15 17" fill="none" xmlns="http://www.w3.org/2000/svg">
<path d="M9.68086 6.16745C9.42086 6.10745 9.13419 6.07745 8.82086 6.07745C8.32086 6.07745 7.86086 6.18412 7.44086 6.39745C7.02753 6.60412 6.67086 6.87745 6.37086 7.21745C6.07086 7.55745 5.83419 7.94745 5.66086 8.38745C5.49419 8.82745 5.41086 9.27745 5.41086 9.73745C5.41086 10.2175 5.52086 10.6041 5.74086 10.8975C5.96086 11.1841 6.28753 11.3275 6.72086 11.3275C6.92753 11.3275 7.13419 11.2941 7.34086 11.2275C7.55419 11.1608 7.75753 11.0441 7.95086 10.8775C8.15086 10.7108 8.33419 10.4841 8.50086 10.1975C8.66753 9.91078 8.80753 9.55078 8.92086 9.11745L9.68086 6.16745ZM10.3009 8.95745C10.1675 9.46412 10.1042 9.87745 10.1109 10.1975C10.1175 10.5108 10.1675 10.7575 10.2609 10.9375C10.3609 11.1175 10.4975 11.2408 10.6709 11.3075C10.8442 11.3675 11.0342 11.3975 11.2409 11.3975C11.5675 11.3975 11.8775 11.3041 12.1709 11.1175C12.4642 10.9308 12.7209 10.6675 12.9409 10.3275C13.1675 9.98745 13.3442 9.58078 13.4709 9.10745C13.6042 8.62745 13.6709 8.09745 13.6709 7.51745C13.6709 6.59745 13.5242 5.79078 13.2309 5.09745C12.9375 4.40412 12.5309 3.82745 12.0109 3.36745C11.4975 2.90078 10.8875 2.55412 10.1809 2.32745C9.48086 2.09412 8.72419 1.97745 7.91086 1.97745C7.01753 1.97745 6.18086 2.14745 5.40086 2.48745C4.62086 2.82745 3.94086 3.29745 3.36086 3.89745C2.78086 4.49745 2.32086 5.20745 1.98086 6.02745C1.64753 6.84745 1.48086 7.74078 1.48086 8.70745C1.48086 9.84078 1.65753 10.8375 2.01086 11.6975C2.37086 12.5508 2.85753 13.2675 3.47086 13.8475C4.09086 14.4275 4.81753 14.8641 5.65086 15.1575C6.48419 15.4508 7.37753 15.5975 8.33086 15.5975C9.34419 15.5975 10.2375 15.4875 11.0109 15.2675C11.7909 15.0475 12.4642 14.7675 13.0309 14.4275C13.1642 14.3475 13.2809 14.3241 13.3809 14.3575C13.4809 14.3841 13.5542 14.4575 13.6009 14.5775L13.8609 15.2375C13.1409 15.7175 12.3242 16.0941 11.4109 16.3675C10.5042 16.6408 9.47753 16.7775 8.33086 16.7775C7.17086 16.7775 6.09419 16.5941 5.10086 16.2275C4.10753 15.8608 3.24419 15.3308 2.51086 14.6375C1.78419 13.9508 1.21086 13.1075 0.790859 12.1075C0.377526 11.1075 0.170859 9.97412 0.170859 8.70745C0.170859 7.98078 0.260859 7.28078 0.440859 6.60745C0.627526 5.93412 0.887526 5.30745 1.22086 4.72745C1.55419 4.14078 1.95419 3.60745 2.42086 3.12745C2.88753 2.64078 3.40753 2.22745 3.98086 1.88745C4.55419 1.54078 5.17086 1.27412 5.83086 1.08745C6.49753 0.894117 7.19086 0.79745 7.91086 0.79745C8.52419 0.79745 9.12419 0.864117 9.71086 0.99745C10.2975 1.13078 10.8509 1.32745 11.3709 1.58745C11.8975 1.84745 12.3775 2.17078 12.8109 2.55745C13.2509 2.93745 13.6309 3.37745 13.9509 3.87745C14.2709 4.37078 14.5175 4.92412 14.6909 5.53745C14.8709 6.14412 14.9609 6.80412 14.9609 7.51745C14.9609 8.23745 14.8575 8.90412 14.6509 9.51745C14.4509 10.1241 14.1709 10.6508 13.8109 11.0975C13.4575 11.5441 13.0375 11.8941 12.5509 12.1475C12.0642 12.4008 11.5409 12.5275 10.9809 12.5275C10.4742 12.5275 10.0542 12.4041 9.72086 12.1575C9.39419 11.9041 9.18419 11.5208 9.09086 11.0075C8.71086 11.5408 8.29419 11.9241 7.84086 12.1575C7.38753 12.3908 6.89753 12.5075 6.37086 12.5075C5.97753 12.5075 5.63086 12.4408 5.33086 12.3075C5.03753 12.1675 4.79419 11.9775 4.60086 11.7375C4.40753 11.4908 4.26086 11.2008 4.16086 10.8675C4.06753 10.5341 4.02086 10.1741 4.02086 9.78745C4.02086 9.22078 4.12753 8.65078 4.34086 8.07745C4.56086 7.49745 4.88419 6.97745 5.31086 6.51745C5.73753 6.05078 6.26753 5.67078 6.90086 5.37745C7.53419 5.08412 8.26753 4.93745 9.10086 4.93745C9.54753 4.93745 9.94086 4.97412 10.2809 5.04745C10.6209 5.11412 10.9409 5.21412 11.2409 5.34745L10.3009 8.95745Z" fill="#999999"/>
</svg>

