<svg width="13" height="14" viewBox="0 0 13 14" fill="none" xmlns="http://www.w3.org/2000/svg">
<path d="M5.611 0.847435L7.538 2.77444C7.70716 2.94344 7.83346 3.15043 7.90637 3.37816C7.97929 3.60588 7.99671 3.84774 7.95718 4.08357C7.91764 4.31939 7.82231 4.54235 7.67911 4.73384C7.53592 4.92534 7.34902 5.07983 7.134 5.18443L5.487 5.98643C5.24892 6.10244 5.06659 6.30815 4.98 6.55843L4.6 7.66043C4.54463 7.82077 4.44938 7.96438 4.32322 8.07776C4.19706 8.19115 4.04413 8.27058 3.87882 8.30858C3.71351 8.34658 3.54125 8.34191 3.37824 8.295C3.21523 8.24809 3.06683 8.16049 2.947 8.04043L2 7.09343L0.707 8.38544H0V7.67844L1.293 6.38743L0.345 5.43944C0.225179 5.31959 0.137781 5.17126 0.0910119 5.00837C0.0442427 4.84549 0.0396368 4.67338 0.0776267 4.50823C0.115617 4.34307 0.194956 4.19028 0.308195 4.0642C0.421434 3.93812 0.564858 3.84288 0.725 3.78744L1.827 3.40744C1.95138 3.36432 2.06602 3.29708 2.16435 3.20956C2.26268 3.12204 2.34276 3.01597 2.4 2.89744L3.202 1.25044C3.3066 1.03541 3.46109 0.848514 3.65259 0.705321C3.84409 0.562128 4.06705 0.466791 4.30287 0.427258C4.53869 0.387726 4.78055 0.405144 5.00828 0.478061C5.236 0.550977 5.443 0.677279 5.612 0.846435L5.611 0.847435ZM1 10.8874V9.31444L1.954 8.36043L2 8.40543V10.8874C2 11.2853 2.15804 11.6668 2.43934 11.9481C2.72064 12.2294 3.10218 12.3874 3.5 12.3874H7V9.88743C7 9.22439 7.26339 8.58851 7.73223 8.11967C8.20107 7.65083 8.83696 7.38743 9.5 7.38743H12V3.88744C12 3.48961 11.842 3.10808 11.5607 2.82678C11.2794 2.54547 10.8978 2.38744 10.5 2.38744H8.462C8.42122 2.3394 8.37852 2.29303 8.334 2.24844L7.473 1.38744H10.5C11.163 1.38744 11.7989 1.65083 12.2678 2.11967C12.7366 2.58851 13 3.22439 13 3.88744V7.55943C12.9999 8.22218 12.7366 8.85774 12.268 9.32644L8.939 12.6554C8.47031 13.124 7.83474 13.3873 7.172 13.3874H3.5C2.83696 13.3874 2.20107 13.124 1.73223 12.6552C1.26339 12.1864 1 11.5505 1 10.8874ZM8 12.1374C8.083 12.0824 8.16 12.0194 8.232 11.9474L11.561 8.61944C11.632 8.54844 11.695 8.47044 11.751 8.38743H9.5C9.10218 8.38743 8.72064 8.54547 8.43934 8.82677C8.15804 9.10808 8 9.48961 8 9.88743V12.1374Z" fill="#00BB7C"/>
</svg>
