<svg width="12" height="16" viewBox="0 0 12 16" fill="none" xmlns="http://www.w3.org/2000/svg">
<path d="M6 0.685181C3.93225 0.685181 2.25 2.36743 2.25 4.43518V6.68518H1.5C0.67275 6.68518 0 7.35793 0 8.18518V14.1852C0 15.0124 0.67275 15.6852 1.5 15.6852H10.5C11.3273 15.6852 12 15.0124 12 14.1852V8.18518C12 7.35793 11.3273 6.68518 10.5 6.68518H9.75V4.43518C9.75 2.36743 8.06775 0.685181 6 0.685181ZM10.5 8.18518L10.5015 14.1852H1.5V8.18518H10.5ZM3.75 6.68518V4.43518C3.75 3.19468 4.7595 2.18518 6 2.18518C7.2405 2.18518 8.25 3.19468 8.25 4.43518V6.68518H3.75Z" fill="#999999"/>
</svg>
