<svg width="8" height="7" viewBox="0 0 8 7" fill="none" xmlns="http://www.w3.org/2000/svg">
<path fill-rule="evenodd" clip-rule="evenodd" d="M0.323608 0.939012C0.323608 0.812251 0.373964 0.690682 0.463597 0.601049C0.553231 0.511415 0.6748 0.46106 0.801561 0.46106H7.49289C7.61965 0.46106 7.74122 0.511415 7.83086 0.601049C7.92049 0.690682 7.97085 0.812251 7.97085 0.939012C7.97085 1.06577 7.92049 1.18734 7.83086 1.27698C7.74122 1.36661 7.61965 1.41696 7.49289 1.41696H0.801561C0.6748 1.41696 0.553231 1.36661 0.463597 1.27698C0.373964 1.18734 0.323608 1.06577 0.323608 0.939012ZM0.323608 3.32877C0.323608 3.20201 0.373964 3.08044 0.463597 2.99081C0.553231 2.90118 0.6748 2.85082 0.801561 2.85082H7.49289C7.61965 2.85082 7.74122 2.90118 7.83086 2.99081C7.92049 3.08044 7.97085 3.20201 7.97085 3.32877C7.97085 3.45553 7.92049 3.5771 7.83086 3.66674C7.74122 3.75637 7.61965 3.80673 7.49289 3.80673H0.801561C0.6748 3.80673 0.553231 3.75637 0.463597 3.66674C0.373964 3.5771 0.323608 3.45553 0.323608 3.32877ZM0.323608 5.71854C0.323608 5.59177 0.373964 5.47021 0.463597 5.38057C0.553231 5.29094 0.6748 5.24058 0.801561 5.24058H4.62518C4.75194 5.24058 4.87351 5.29094 4.96314 5.38057C5.05278 5.47021 5.10313 5.59177 5.10313 5.71854C5.10313 5.8453 5.05278 5.96687 4.96314 6.0565C4.87351 6.14613 4.75194 6.19649 4.62518 6.19649H0.801561C0.6748 6.19649 0.553231 6.14613 0.463597 6.0565C0.373964 5.96687 0.323608 5.8453 0.323608 5.71854Z" fill="#999999"/>
</svg>



