<svg width="15" height="15" viewBox="0 0 15 15" fill="none" xmlns="http://www.w3.org/2000/svg">
<path d="M1.3332 10.2198C0.994396 10.2198 0.71974 10.4944 0.71974 10.8333C0.71974 11.1721 0.994396 11.4467 1.3332 11.4467V10.2198ZM3.3332 5.49992H2.71974H3.3332ZM12.6665 5.49992H13.28H12.6665ZM9.1532 13.4999L9.68384 13.8077C9.79393 13.618 9.79429 13.3839 9.68479 13.1937C9.57528 13.0036 9.37259 12.8865 9.1532 12.8865V13.4999ZM6.84653 13.4999V12.8865C6.62714 12.8865 6.42445 13.0036 6.31494 13.1937C6.20544 13.3839 6.2058 13.618 6.31589 13.8077L6.84653 13.4999ZM14.6665 10.2198H1.3332V11.4467H14.6665V10.2198ZM1.3332 11.4467C2.77658 11.4467 3.94666 10.2766 3.94666 8.83325H2.71974C2.71974 9.59902 2.09897 10.2198 1.3332 10.2198V11.4467ZM3.94666 8.83325V5.49992H2.71974V8.83325H3.94666ZM3.94666 5.49992C3.94666 3.2614 5.76135 1.44671 7.99987 1.44671V0.219789C5.08373 0.219789 2.71974 2.58378 2.71974 5.49992H3.94666ZM7.99987 1.44671C10.2384 1.44671 12.0531 3.2614 12.0531 5.49992H13.28C13.28 2.58378 10.916 0.219789 7.99987 0.219789V1.44671ZM12.0531 5.49992V8.83325H13.28V5.49992H12.0531ZM12.0531 8.83325C12.0531 10.2766 13.2232 11.4467 14.6665 11.4467V10.2198C13.9008 10.2198 13.28 9.59902 13.28 8.83325H12.0531ZM8.62255 13.1921C8.49377 13.4141 8.25652 13.5508 7.99986 13.5508V14.7777C8.69396 14.7777 9.33556 14.4081 9.68384 13.8077L8.62255 13.1921ZM7.99986 13.5508C7.74321 13.5508 7.50596 13.4141 7.37718 13.1921L6.31589 13.8077C6.66417 14.4081 7.30576 14.7777 7.99986 14.7777V13.5508ZM6.84653 14.1134H9.1532V12.8865H6.84653V14.1134Z" fill="#999999"/>
</svg>
