<svg width="14" height="15" viewBox="0 0 14 15" fill="none" xmlns="http://www.w3.org/2000/svg">
<path d="M7 0.599999C3.248 0.599999 0.2 3.648 0.2 7.4C0.2 11.152 3.248 14.2 7 14.2C8.256 14.2 9.432 13.88 10.464 13.312L10.488 13.296C10.68 13.192 10.808 12.992 10.808 12.768C10.808 12.44 10.536 12.168 10.208 12.168C10.104 12.168 10 12.2 9.912 12.248C9.048 12.728 8.056 13 7 13C3.912 13 1.4 10.488 1.4 7.4C1.4 4.312 3.912 1.8 7 1.8C10.088 1.8 12.6 4.312 12.6 7.4C12.6 8.744 12.176 9.4 11.4 9.4C10.712 9.4 10.2 8.776 10.2 8V4.8C10.2 4.472 9.928 4.2 9.6 4.2C9.272 4.2 9 4.472 9 4.8V4.904C8.456 4.464 7.76 4.2 7 4.2C5.232 4.2 3.8 5.632 3.8 7.4C3.8 9.168 5.232 10.6 7 10.6C7.968 10.6 8.84 10.168 9.424 9.488C9.856 10.16 10.576 10.6 11.4 10.6C12.888 10.6 13.8 9.392 13.8 7.4C13.8 3.648 10.752 0.599999 7 0.599999ZM7 9.4C5.896 9.4 5 8.504 5 7.4C5 6.296 5.896 5.4 7 5.4C8.104 5.4 9 6.296 9 7.4C9 8.504 8.104 9.4 7 9.4Z" fill="#333333"/>
</svg>
