<svg width="4" height="14" viewBox="0 0 4 14" fill="none" xmlns="http://www.w3.org/2000/svg">
<path fill-rule="evenodd" clip-rule="evenodd" d="M1.99989 8.3492C2.64422 8.3492 3.16655 7.82687 3.16655 7.18254C3.16655 6.5382 2.64422 6.01587 1.99989 6.01587C1.35556 6.01587 0.833221 6.5382 0.833221 7.18254C0.833221 7.82687 1.35556 8.3492 1.99989 8.3492Z" stroke="#00BB7C" stroke-width="1.22693" stroke-linecap="round" stroke-linejoin="round"/>
<path fill-rule="evenodd" clip-rule="evenodd" d="M1.99989 3.6827C2.64422 3.6827 3.16655 3.16036 3.16655 2.51603C3.16655 1.8717 2.64422 1.34937 1.99989 1.34937C1.35556 1.34937 0.833221 1.8717 0.833221 2.51603C0.833221 3.16036 1.35556 3.6827 1.99989 3.6827Z" stroke="#00BB7C" stroke-width="1.22693" stroke-linecap="round" stroke-linejoin="round"/>
<path fill-rule="evenodd" clip-rule="evenodd" d="M1.99989 13.016C2.64422 13.016 3.16655 12.4936 3.16655 11.8493C3.16655 11.205 2.64422 10.6826 1.99989 10.6826C1.35556 10.6826 0.833221 11.205 0.833221 11.8493C0.833221 12.4936 1.35556 13.016 1.99989 13.016Z" stroke="#00BB7C" stroke-width="1.22693" stroke-linecap="round" stroke-linejoin="round"/>
</svg>
