<svg width="130" height="130" viewBox="0 0 130 130" fill="none" xmlns="http://www.w3.org/2000/svg">
<path d="M64.999 126.295C98.8971 126.295 126.377 98.815 126.377 64.9169C126.377 31.0188 98.8971 3.53891 64.999 3.53891C31.1009 3.53891 3.62109 31.0188 3.62109 64.9169C3.62109 98.815 31.1009 126.295 64.999 126.295Z" stroke="#EB5757" stroke-width="6" stroke-linecap="round" stroke-linejoin="round"/>
<path d="M68.635 45.8381V83.5781H60.68V45.8381H68.635ZM69.967 34.4421C69.967 35.1575 69.819 35.8358 69.523 36.4771C69.2517 37.1185 68.8693 37.6858 68.376 38.1791C67.8827 38.6478 67.303 39.0301 66.637 39.3261C65.9957 39.5975 65.305 39.7331 64.565 39.7331C63.8497 39.7331 63.1713 39.5975 62.53 39.3261C61.9133 39.0301 61.3707 38.6478 60.902 38.1791C60.4333 37.6858 60.051 37.1185 59.755 36.4771C59.4837 35.8358 59.348 35.1575 59.348 34.4421C59.348 33.7021 59.4837 33.0115 59.755 32.3701C60.051 31.7288 60.4333 31.1738 60.902 30.7051C61.3707 30.2118 61.9133 29.8295 62.53 29.5581C63.1713 29.2621 63.8497 29.1141 64.565 29.1141C65.305 29.1141 65.9957 29.2621 66.637 29.5581C67.303 29.8295 67.8827 30.2118 68.376 30.7051C68.8693 31.1738 69.2517 31.7288 69.523 32.3701C69.819 33.0115 69.967 33.7021 69.967 34.4421Z" fill="#EB5757"/>
</svg>
